<svg id="SvgjsSvg1012" width="288" height="288" xmlns="http://www.w3.org/2000/svg" version="1.1" xmlns:xlink="http://www.w3.org/1999/xlink" xmlns:svgjs="http://svgjs.com/svgjs"><defs id="SvgjsDefs1013"></defs><g id="SvgjsG1014"><svg xmlns="http://www.w3.org/2000/svg" fill="none" viewBox="0 0 75 68" width="288" height="288"><path fill="#dc3817" d="M21.875 51C16.6667 51 12.2396 49.3472 8.59375 46.0417C4.94792 42.7361 3.125 38.7222 3.125 34C3.125 29.2778 4.94792 25.2639 8.59375 21.9583C12.2396 18.6528 16.6667 17 21.875 17H53.125C58.3333 17 62.7604 18.6528 66.4062 21.9583C70.0521 25.2639 71.875 29.2778 71.875 34C71.875 38.7222 70.0521 42.7361 66.4062 46.0417C62.7604 49.3472 58.3333 51 53.125 51H21.875ZM21.875 46.75H53.125C57.0312 46.75 60.3516 45.5104 63.0859 43.0312C65.8203 40.5521 67.1875 37.5417 67.1875 34C67.1875 30.4583 65.8203 27.4479 63.0859 24.9688C60.3516 22.4896 57.0312 21.25 53.125 21.25H21.875C17.9688 21.25 14.6484 22.4896 11.9141 24.9688C9.17969 27.4479 7.8125 30.4583 7.8125 34C7.8125 37.5417 9.17969 40.5521 11.9141 43.0312C14.6484 45.5104 17.9688 46.75 21.875 46.75ZM21.7923 41.1542C23.9828 41.1542 25.8464 40.459 27.3828 39.0688C28.9193 37.6785 29.6875 35.9903 29.6875 34.0042C29.6875 32.0181 28.9208 30.3285 27.3874 28.9354C25.854 27.5424 23.9921 26.8458 21.8015 26.8458C19.6109 26.8458 17.7474 27.541 16.2109 28.9312C14.6745 30.3215 13.9062 32.0097 13.9062 33.9958C13.9062 35.9819 14.6729 37.6715 16.2063 39.0646C17.7397 40.4576 19.6017 41.1542 21.7923 41.1542Z" class="color000 svgShape"></path><path fill="#dc3817" d="M37.9659 41.2273C36.9811 41.2273 36.117 40.9929 35.3736 40.5241C34.6349 40.0554 34.0573 39.3996 33.6406 38.5568C33.2287 37.714 33.0227 36.7292 33.0227 35.6023C33.0227 34.4659 33.2287 33.474 33.6406 32.6264C34.0573 31.7789 34.6349 31.1207 35.3736 30.652C36.117 30.1832 36.9811 29.9489 37.9659 29.9489C38.9508 29.9489 39.8125 30.1832 40.5511 30.652C41.2945 31.1207 41.8722 31.7789 42.2841 32.6264C42.7008 33.474 42.9091 34.4659 42.9091 35.6023C42.9091 36.7292 42.7008 37.714 42.2841 38.5568C41.8722 39.3996 41.2945 40.0554 40.5511 40.5241C39.8125 40.9929 38.9508 41.2273 37.9659 41.2273ZM37.9659 39.7216C38.714 39.7216 39.3295 39.5298 39.8125 39.1463C40.2955 38.7628 40.6529 38.2585 40.8849 37.6335C41.117 37.0085 41.233 36.3314 41.233 35.6023C41.233 34.8731 41.117 34.1937 40.8849 33.5639C40.6529 32.9342 40.2955 32.4252 39.8125 32.0369C39.3295 31.6487 38.714 31.4545 37.9659 31.4545C37.2178 31.4545 36.6023 31.6487 36.1193 32.0369C35.6364 32.4252 35.2789 32.9342 35.0469 33.5639C34.8149 34.1937 34.6989 34.8731 34.6989 35.6023C34.6989 36.3314 34.8149 37.0085 35.0469 37.6335C35.2789 38.2585 35.6364 38.7628 36.1193 39.1463C36.6023 39.5298 37.2178 39.7216 37.9659 39.7216ZM50.3256 30.0909V31.5114H44.445V30.0909H50.3256ZM46.2063 41V28.5852C46.2063 27.9602 46.3531 27.4394 46.6467 27.0227C46.9402 26.6061 47.3214 26.2936 47.7901 26.0852C48.2589 25.8769 48.7537 25.7727 49.2745 25.7727C49.6864 25.7727 50.0226 25.8059 50.283 25.8722C50.5434 25.9384 50.7376 26 50.8654 26.0568L50.3825 27.5057C50.2972 27.4773 50.1789 27.4418 50.0273 27.3991C49.8806 27.3565 49.6864 27.3352 49.445 27.3352C48.891 27.3352 48.4909 27.4749 48.2447 27.7543C48.0032 28.0336 47.8825 28.4432 47.8825 28.983V41H46.2063ZM57.5327 30.0909V31.5114H51.652V30.0909H57.5327ZM53.4134 41V28.5852C53.4134 27.9602 53.5601 27.4394 53.8537 27.0227C54.1473 26.6061 54.5284 26.2936 54.9972 26.0852C55.4659 25.8769 55.9607 25.7727 56.4815 25.7727C56.8935 25.7727 57.2296 25.8059 57.4901 25.8722C57.7505 25.9384 57.9446 26 58.0724 26.0568L57.5895 27.5057C57.5043 27.4773 57.3859 27.4418 57.2344 27.3991C57.0876 27.3565 56.8935 27.3352 56.652 27.3352C56.098 27.3352 55.6979 27.4749 55.4517 27.7543C55.2102 28.0336 55.0895 28.4432 55.0895 28.983V41H53.4134Z" class="color000 svgShape"></path></svg></g></svg>