<svg id="SvgjsSvg1001" width="288" height="288" xmlns="http://www.w3.org/2000/svg" version="1.1" xmlns:xlink="http://www.w3.org/1999/xlink" xmlns:svgjs="http://svgjs.com/svgjs"><defs id="SvgjsDefs1002"></defs><g id="SvgjsG1008"><svg xmlns="http://www.w3.org/2000/svg" fill="none" viewBox="0 0 75 68" width="288" height="288"><path fill="#4a9831" d="M21.875 51C16.6667 51 12.2396 49.3472 8.59375 46.0417C4.94792 42.7361 3.125 38.7222 3.125 34C3.125 29.2778 4.94792 25.2639 8.59375 21.9583C12.2396 18.6528 16.6667 17 21.875 17H53.125C58.3333 17 62.7604 18.6528 66.4062 21.9583C70.0521 25.2639 71.875 29.2778 71.875 34C71.875 38.7222 70.0521 42.7361 66.4062 46.0417C62.7604 49.3472 58.3333 51 53.125 51H21.875ZM21.875 46.75H53.125C57.0312 46.75 60.3516 45.5104 63.0859 43.0312C65.8203 40.5521 67.1875 37.5417 67.1875 34C67.1875 30.4583 65.8203 27.4479 63.0859 24.9688C60.3516 22.4896 57.0312 21.25 53.125 21.25H21.875C17.9688 21.25 14.6484 22.4896 11.9141 24.9688C9.17969 27.4479 7.8125 30.4583 7.8125 34C7.8125 37.5417 9.17969 40.5521 11.9141 43.0312C14.6484 45.5104 17.9688 46.75 21.875 46.75ZM53.1985 41.1542C55.3891 41.1542 57.2526 40.459 58.7891 39.0688C60.3255 37.6785 61.0938 35.9903 61.0938 34.0042C61.0938 32.0181 60.3271 30.3285 58.7937 28.9354C57.2603 27.5424 55.3983 26.8458 53.2077 26.8458C51.0172 26.8458 49.1536 27.541 47.6172 28.9312C46.0807 30.3215 45.3125 32.0097 45.3125 33.9958C45.3125 35.9819 46.0792 37.6715 47.6126 39.0646C49.146 40.4576 51.0079 41.1542 53.1985 41.1542Z" class="color000 svgShape"></path><path fill="#4a9831" d="M20.9659 41.2273C19.9811 41.2273 19.117 40.9929 18.3736 40.5241C17.6349 40.0554 17.0573 39.3996 16.6406 38.5568C16.2287 37.714 16.0227 36.7292 16.0227 35.6023C16.0227 34.4659 16.2287 33.474 16.6406 32.6264C17.0573 31.7789 17.6349 31.1207 18.3736 30.652C19.117 30.1832 19.9811 29.9489 20.9659 29.9489C21.9508 29.9489 22.8125 30.1832 23.5511 30.652C24.2945 31.1207 24.8722 31.7789 25.2841 32.6264C25.7008 33.474 25.9091 34.4659 25.9091 35.6023C25.9091 36.7292 25.7008 37.714 25.2841 38.5568C24.8722 39.3996 24.2945 40.0554 23.5511 40.5241C22.8125 40.9929 21.9508 41.2273 20.9659 41.2273ZM20.9659 39.7216C21.714 39.7216 22.3295 39.5298 22.8125 39.1463C23.2955 38.7628 23.6529 38.2585 23.8849 37.6335C24.117 37.0085 24.233 36.3314 24.233 35.6023C24.233 34.8731 24.117 34.1937 23.8849 33.5639C23.6529 32.9342 23.2955 32.4252 22.8125 32.0369C22.3295 31.6487 21.714 31.4545 20.9659 31.4545C20.2178 31.4545 19.6023 31.6487 19.1193 32.0369C18.6364 32.4252 18.2789 32.9342 18.0469 33.5639C17.8149 34.1937 17.6989 34.8731 17.6989 35.6023C17.6989 36.3314 17.8149 37.0085 18.0469 37.6335C18.2789 38.2585 18.6364 38.7628 19.1193 39.1463C19.6023 39.5298 20.2178 39.7216 20.9659 39.7216ZM30.1438 34.4375V41H28.4677V30.0909H30.087V31.7955H30.229C30.4847 31.2415 30.873 30.7964 31.3938 30.4602C31.9147 30.1193 32.587 29.9489 33.4109 29.9489C34.1495 29.9489 34.7958 30.1004 35.3498 30.4034C35.9038 30.7017 36.3346 31.1562 36.6424 31.767C36.9502 32.3731 37.104 33.1402 37.104 34.0682V41H35.4279V34.1818C35.4279 33.3248 35.2054 32.6572 34.7603 32.179C34.3152 31.696 33.7044 31.4545 32.9279 31.4545C32.3929 31.4545 31.9147 31.5705 31.4933 31.8026C31.0766 32.0346 30.7475 32.3731 30.506 32.8182C30.2646 33.2633 30.1438 33.803 30.1438 34.4375Z" class="color000 svgShape"></path></svg></g></svg>