<svg width="113" height="99" viewBox="0 0 113 99" fill="none" xmlns="http://www.w3.org/2000/svg">
<path d="M56.1469 86.625C44.4545 86.625 34.5278 82.9984 26.3667 75.7453C18.2056 68.4922 14.125 59.7094 14.125 49.3969H21.1875C21.1875 57.9906 24.5618 65.3125 31.3104 71.3625C38.059 77.4125 46.3378 80.4375 56.1469 80.4375C66.1128 80.4375 74.5486 77.3781 81.4542 71.2594C88.3597 65.1406 91.8125 57.7156 91.8125 48.9844C91.8125 40.4594 88.3205 33.2578 81.3365 27.3797C74.3524 21.5016 65.9559 18.5625 56.1469 18.5625C50.8108 18.5625 45.8082 19.6281 41.1391 21.7594C36.47 23.8906 32.409 26.7094 28.9562 30.2156H41.3156V36.4031H16.7146V14.9531H23.7771V25.8844C27.8576 21.6906 32.7033 18.3906 38.3141 15.9844C43.9248 13.5781 49.8691 12.375 56.1469 12.375C62.0323 12.375 67.5646 13.3375 72.7437 15.2625C77.9229 17.1875 82.4547 19.8172 86.3391 23.1516C90.2234 26.4859 93.2839 30.3875 95.5203 34.8562C97.7568 39.325 98.875 44.1375 98.875 49.2937C98.875 54.45 97.7568 59.2969 95.5203 63.8344C93.2839 68.3719 90.2234 72.325 86.3391 75.6937C82.4547 79.0625 77.9229 81.7266 72.7437 83.6859C67.5646 85.6453 62.0323 86.625 56.1469 86.625ZM71.2135 66.3094L53.0865 50.6344V28.5656H60.149V48.0562L76.275 61.875L71.2135 66.3094Z" fill="white"/>
</svg>
