<svg width="111" height="104" viewBox="0 0 111 104" fill="none" xmlns="http://www.w3.org/2000/svg">
<path d="M44.8625 95.3333L42.55 81.6833C41.0854 81.1777 39.5437 80.4916 37.925 79.625C36.3062 78.7583 34.8802 77.8555 33.6469 76.9166L20.0031 82.7666L9.25 65L21.7375 56.4416C21.5833 55.7916 21.487 55.0513 21.4484 54.2208C21.4099 53.3902 21.3906 52.65 21.3906 52C21.3906 51.35 21.4099 50.6097 21.4484 49.7791C21.487 48.9486 21.5833 48.2083 21.7375 47.5583L9.25 39L20.0031 21.2333L33.6469 27.0833C34.8802 26.1444 36.3062 25.2416 37.925 24.375C39.5437 23.5083 41.0854 22.8583 42.55 22.425L44.8625 8.66663H66.1375L68.45 22.3166C69.9146 22.8222 71.4755 23.4902 73.1328 24.3208C74.7901 25.1513 76.1969 26.0722 77.3531 27.0833L90.9969 21.2333L101.75 39L89.2625 47.3416C89.4167 48.0638 89.513 48.8402 89.5516 49.6708C89.5901 50.5013 89.6094 51.2777 89.6094 52C89.6094 52.7222 89.5901 53.4805 89.5516 54.275C89.513 55.0694 89.4167 55.8277 89.2625 56.55L101.75 65L90.9969 82.7666L77.3531 76.9166C76.1198 77.8555 74.713 78.7763 73.1328 79.6791C71.5526 80.5819 69.9917 81.25 68.45 81.6833L66.1375 95.3333H44.8625ZM55.5 66.0833C59.6625 66.0833 63.2083 64.7111 66.1375 61.9666C69.0667 59.2222 70.5312 55.9 70.5312 52C70.5312 48.1 69.0667 44.7777 66.1375 42.0333C63.2083 39.2888 59.6625 37.9166 55.5 37.9166C51.3375 37.9166 47.7917 39.2888 44.8625 42.0333C41.9333 44.7777 40.4687 48.1 40.4687 52C40.4687 55.9 41.9333 59.2222 44.8625 61.9666C47.7917 64.7111 51.3375 66.0833 55.5 66.0833ZM55.5 59.5833C53.2646 59.5833 51.3568 58.843 49.7766 57.3625C48.1964 55.8819 47.4062 54.0944 47.4062 52C47.4062 49.9055 48.1964 48.118 49.7766 46.6375C51.3568 45.1569 53.2646 44.4166 55.5 44.4166C57.7354 44.4166 59.6432 45.1569 61.2234 46.6375C62.8036 48.118 63.5937 49.9055 63.5937 52C63.5937 54.0944 62.8036 55.8819 61.2234 57.3625C59.6432 58.843 57.7354 59.5833 55.5 59.5833ZM50.4125 88.8333H60.5875L62.2062 76.7C64.75 76.1222 67.1589 75.2194 69.4328 73.9916C71.7068 72.7638 73.7687 71.2833 75.6187 69.55L87.875 74.5333L92.5 66.7333L81.6312 59.2583C81.9396 58.0305 82.1901 56.8208 82.3828 55.6291C82.5755 54.4375 82.6719 53.2277 82.6719 52C82.6719 50.7722 82.5948 49.5625 82.4406 48.3708C82.2865 47.1791 82.0167 45.9694 81.6312 44.7416L92.5 37.2666L87.875 29.4666L75.6187 34.45C73.8458 32.5722 71.8417 31.0013 69.6062 29.7375C67.3708 28.4736 64.9042 27.6611 62.2062 27.3L60.5875 15.1666H50.4125L48.7937 27.3C46.1729 27.8055 43.7255 28.6722 41.4516 29.9C39.1776 31.1277 37.1542 32.6444 35.3812 34.45L23.125 29.4666L18.5 37.2666L29.3687 44.7416C29.0604 45.9694 28.8099 47.1791 28.6172 48.3708C28.4245 49.5625 28.3281 50.7722 28.3281 52C28.3281 53.2277 28.4245 54.4375 28.6172 55.6291C28.8099 56.8208 29.0604 58.0305 29.3687 59.2583L18.5 66.7333L23.125 74.5333L35.3812 69.55C37.2312 71.2833 39.2932 72.7638 41.5672 73.9916C43.8411 75.2194 46.25 76.1222 48.7937 76.7L50.4125 88.8333Z" fill="white"/>
</svg>
